# AST/ASF file generated using VICON BodyLanguage
# -----------------------------------------------
:version 1.10
:name VICON
:units
  mass 1.0
  length 0.45
  angle deg
:documentation
   .ast/.asf automatically generated from VICON data using
   VICON BodyBuilder and BodyLanguage model FoxedUp or BRILLIANT.MOD
:root
   order TX TY TZ RX RY RZ
   axis XYZ
   position 0 0 0  
   orientation 0 0 0 
:bonedata
  begin
     id 1 
     name lhipjoint
     direction 0.541323 -0.757556 0.364798 
     length 2.47576 
     axis 0 0 0  XYZ
  end
  begin
     id 2 
     name lfemur
     direction 0.34202 -0.939693 0  
     length 7.46493  
     axis 0 0 20  XYZ
    dof rx ry rz
    limits (-160.0 20.0)
           (-70.0 70.0)
           (-60.0 70.0)
  end
  begin
     id 3 
     name ltibia
     direction 0.34202 -0.939693 0   
     length 7.73805   
     axis 0 0 20   XYZ
    dof rx
    limits (-10.0 170.0)
  end
  begin
     id 4 
     name lfoot
     direction 0.107174 -0.294458 0.949636   
     length 2.25864   
     axis -90 7.62852e-016 20   XYZ
    dof rx rz
    limits (-45.0 90.0)
           (-70.0 20.0)
  end
  begin
     id 5 
     name ltoes
     direction 1.53606e-011 -4.21934e-011 1   
     length 1.12451   
     axis -90 7.62852e-016 20   XYZ
    dof rx
    limits (-90.0 20.0)
  end
  begin
     id 6 
     name rhipjoint
     direction -0.524745 -0.766967 0.36933   
     length 2.44538  
     axis 0 0 0  XYZ 
  end
  begin
     id 7 
     name rfemur
     direction -0.34202 -0.939693 0   
     length 7.61604   
     axis 0 0 -20   XYZ
    dof rx ry rz
    limits (-160.0 20.0)
           (-70.0 70.0)
           (-70.0 60.0)
  end
  begin
     id 8 
     name rtibia
     direction -0.34202 -0.939693 0   
     length 7.61056   
     axis 0 0 -20   XYZ
    dof rx
    limits (-10.0 170.0)
 end
 begin
     id 9 
     name rfoot
     direction -0.12616 -0.346623 0.929482   
     length 2.46372  
     axis -90 -7.62852e-016 -20   XYZ
    dof rx rz
    limits (-45.0 90.0)
           (-20.0 70.0)
  end
  begin
     id 10 
     name rtoes
     direction -1.53531e-011 -4.22004e-011 1   
     length 1.21611   
     axis -90 -7.62852e-016 -20   XYZ
    dof rx
    limits (-90.0 20.0)
  end
  begin
     id 11 
     name lowerback
     direction -0.000778023 0.997293 -0.0735223   
     length 2.06139   
     axis 0 0 0   XYZ
    dof rx ry rz
    limits (-20.0 45.0)
           (-30.0 30.0)
           (-30.0 30.0)
  end
  begin
     id 12 
     name upperback
     direction 0.0222598 0.999722 -0.0078355   
     length 2.06383   
     axis 0 0 0   XYZ
    dof rx ry rz
    limits (-20.0 45.0)
           (-30.0 30.0)
           (-30.0 30.0)
  end
  begin
     id 13 
     name thorax
     direction 0.0219654 0.999405 0.0265994   
     length 2.07163   
     axis 0 0 0   XYZ
    dof rx ry rz
    limits (-20.0 45.0)
           (-30.0 30.0)
           (-30.0 30.0)
  end
  begin
     id 14 
     name lowerneck
     direction 0.0213282 0.988147 0.15202   
     length 1.75969   
     axis 0 0 0   XYZ
    dof rx ry rz
    limits (-20.0 45.0)
           (-30.0 30.0)
           (-30.0 30.0)
  end
  begin
     id 15 
     name upperneck
     direction -0.0546456 0.982624 -0.177379   
     length 1.79244   
     axis 0 0 0   XYZ
    dof rx ry rz
    limits (-20.0 45.0)
           (-30.0 30.0)
           (-30.0 30.0)
  end
  begin
     id 16
     name head
     direction -0.0199987 0.996855 -0.076686  
     length 1.80555  
     axis 0 0 0   XYZ
    dof rx ry rz
    limits (-20.0 45.0)
           (-30.0 30.0)
           (-30.0 30.0)
  end
  begin
     id 17 
     name lclavicle
     direction 0.929565 0.363219 -0.063096  
     length 3.55722  
     axis 0 0 0   XYZ
    dof ry rz
    limits (-20.0 10.0)
           (0.0 20.0)
  end
  begin
     id 18 
     name lhumerus
     direction 1 -4.48993e-011 -2.36203e-027   
     length 4.92785   
     axis 180 -30 -90   XYZ
    dof rx ry rz
    limits (-60.0 90.0)
           (-90.0 90.0)
           (-90.0 90.0)
  end
  begin
     id 19
     name lradius
     direction 1 -4.48947e-011 2.02997e-027   
     length 3.44052   
     axis 180 -30 -90   XYZ
    dof rx
    limits (-10.0 170.0)
  end
  begin
     id 20
     name lwrist
     direction 1 -4.48962e-011 1.45991e-027   
     length 1.72026   
     axis 1.49639e-024 90 90   XYZ
    dof ry
    limits (-180.0 0.0)
 end
  begin
     id 21 
     name lhand
     direction 1 -4.48984e-011 2.91906e-027   
     length 0.654326   
     axis -1.863e-015 90 90   XYZ
    dof rx rz
    limits (-90.0 90.0)
           (-45.0 45.0)
  end
  begin
     id 22 
     name lfingers
     direction 1 -4.48961e-011 5.83968e-027   
     length 0.527534   
     axis -3.72598e-015 90 90   XYZ
    dof rx
    limits (0.0 90.0)
  end
  begin
     id 23
     name lthumb
     direction 0.707107 -6.34963e-011 0.707107   
     length 0.757437   
     axis -90 45 -6.68868e-015   XYZ
    dof rx rz
    limits (-45.0 45.0)
           (-45.0 45.0)
  end
  begin
     id 24 
     name rclavicle
     direction -0.902944 0.422599 -0.0781198   
     length 3.54432  
     axis 0 0 0   XYZ 
    dof ry rz
    limits (-10.0 20.0)
           (-20.0 0.0)
  end
  begin
     id 25 
     name rhumerus
     direction -1 -4.48953e-011 -4.75835e-028  
     length 5.09181   
     axis 180 30 90   XYZ
    dof rx ry rz
    limits (-90.0 60.0)
           (-90.0 90.0)
           (-90.0 90.0)
  end
  begin
     id 26 
     name rradius
     direction -1 -4.48986e-011 -3.25889e-027   
     length 3.49865   
     axis 180 30 90   XYZ
    dof rx
    limits (-10.0 170.0)
  end
  begin
     id 27 
     name rwrist
     direction -1 -4.48963e-011 1.45989e-027   
     length 1.74933   
     axis 1.49639e-024 -90 -90   XYZ
    dof ry
    limits (-180.0 0.0)
  end
  begin
     id 28
     name rhand
     direction -1 -4.49003e-011 2.91844e-027   
     length 0.66641   
     axis -1.863e-015 -90 -90   XYZ
    dof rx rz
    limits (-90.0 90.0)
           (-45.0 45.0)
  end
  begin
     id 29
     name rfingers
     direction -1 -4.48973e-011 5.83886e-027   
     length 0.537277   
     axis -3.72598e-015 -90 -90   XYZ
    dof rx
    limits (0.0 90.0)
  end
  begin
     id 30
     name rthumb
     direction -0.707107 -6.34976e-011 0.707107   
     length 0.771425   
     axis -90 -45 6.68868e-015   XYZ
    dof rx rz
    limits (-45.0 45.0)
           (-45.0 45.0)
  end
:hierarchy
  begin
    root lhipjoint rhipjoint lowerback
    lhipjoint lfemur
    lfemur ltibia
    ltibia lfoot
    lfoot ltoes
    rhipjoint rfemur
    rfemur rtibia
    rtibia rfoot
    rfoot rtoes
    lowerback upperback
    upperback thorax
    thorax lowerneck lclavicle rclavicle
    lowerneck upperneck
    upperneck head
    lclavicle lhumerus
    lhumerus lradius
    lradius lwrist
    lwrist lhand lthumb
    lhand lfingers
    rclavicle rhumerus
    rhumerus rradius
    rradius rwrist
    rwrist rhand rthumb
    rhand rfingers
  end

#!OML:ASF H:\LiuWeirdWalks\Patient Classification 1\Patient 1\Session 1\male.ASF
:FULLY-SPECIFIED
:DEGREES
170
root 2.47141 18.0883 -14.1727 0.896588 5.1 -8.32247
lowerback 13.9353 -1.37541 -7.05035
upperback 3.13389 -2.87949 -1.31473
thorax -4.20497 -1.35288 3.08059
lowerneck -17.486 0.587051 5.98083
upperneck 21.8985 -2.04811 4.57523
head 9.89752 0.0881111 0.332483
rclavicle -9.54166e-015 3.18055e-015
rhumerus -23.7683 -28.4984 0.367406
rradius 34.2125
rwrist -3.45858
rhand -19.0838 -2.36299
rfingers 7.12502
rthumb 7.22427 -32.2197
lclavicle -9.54166e-015 3.18055e-015
lhumerus -20.1195 28.1514 38.6657
lradius 35.6419
lwrist 7.73841
lhand -21.9575 -3.22406
lfingers 7.12502
lthumb 4.44976 26.7092
rfemur -16.8738 -8.39001 13.9257
rtibia 33.0641
rfoot -9.21383 -19.006
rtoes -9.67343
lfemur -8.84793 5.4823 -11.3936
ltibia 31.3714
lfoot -15.3667 0.960397
ltoes -12.6126
171
root 2.46869 18.0831 -14.1321 0.813368 5.21643 -8.06129
lowerback 13.9933 -1.42747 -7.1119
upperback 3.14541 -2.96518 -1.39998
thorax -4.21711 -1.39412 3.04116
lowerneck -17.4384 0.581563 6.00659
upperneck 21.8879 -2.09638 4.72595
head 9.88816 0.0844389 0.374459
rclavicle -1.03368e-014 -6.52014e-014
rhumerus -23.4158 -28.3752 0.223465
rradius 34.4069
rwrist -3.53568
rhand -19.1209 -2.39863
rfingers 7.12502
rthumb 7.18848 -32.2565
lclavicle -1.03368e-014 -6.52014e-014
lhumerus -20.2525 28.0493 39.4608
lradius 35.6961
lwrist 7.66895
lhand -21.9268 -3.35168
lfingers 7.12502
lthumb 4.47947 26.5809
rfemur -17.1114 -8.20244 13.7067
rtibia 32.8742
rfoot -9.15787 -19.1347
rtoes -9.62189
lfemur -8.58235 5.61813 -11.6165
ltibia 31.304
lfoot -15.3901 0.727877
ltoes -12.6189
172
root 2.46336 18.0776 -14.0916 0.732235 5.31255 -7.80025
lowerback 14.0577 -1.48001 -7.18761
upperback 3.15912 -3.05511 -1.50632
thorax -4.23052 -1.43729 2.9884
lowerneck -17.4038 0.588827 6.05825
upperneck 21.8735 -2.13905 4.89232
head 9.88039 0.087334 0.418454
rclavicle -3.45885e-014 9.54166e-015
rhumerus -23.0381 -28.2179 0.0695077
rradius 34.6092
rwrist -3.59802
rhand -19.1779 -2.44161
rfingers 7.12502
rthumb 7.13347 -32.3014
lclavicle -3.45885e-014 9.54166e-015
lhumerus -20.4214 27.9974 40.1886
lradius 35.7255
lwrist 7.51811
lhand -21.9037 -3.46946
lfingers 7.12502
lthumb 4.50172 26.4627
rfemur -17.3682 -8.03187 13.5092
rtibia 32.7412
rfoot -9.09271 -19.2503
rtoes -9.56056
lfemur -8.29878 5.76242 -11.8326
ltibia 31.2139
lfoot -15.4184 0.527621
ltoes -12.6192
173
root 2.45539 18.0719 -14.0509 0.653928 5.39485 -7.53941
lowerback 14.125 -1.53395 -7.27987
upperback 3.17876 -3.15016 -1.63042
thorax -4.23883 -1.48313 2.92702
lowerneck -17.3834 0.607802 6.132
upperneck 21.8539 -2.17561 5.07077
head 9.87396 0.0962724 0.463901
rclavicle 1.98785e-014 -9.54166e-015
rhumerus -22.6388 -28.0442 -0.0851316
rradius 34.8131
rwrist -3.63684
rhand -19.2487 -2.48672
rfingers 7.12502
rthumb 7.06506 -32.3488
lclavicle 1.98785e-014 -9.54166e-015
lhumerus -20.618 27.9947 40.8451
lradius 35.736
lwrist 7.32776
lhand -21.8833 -3.57191
lfingers 7.12502
lthumb 4.52149 26.3598
rfemur -17.6427 -7.8819 13.3327
rtibia 32.6566
rfoot -9.02128 -19.3451
rtoes -9.50152
lfemur -8.00225 5.90795 -12.0412
ltibia 31.1052
lfoot -15.4503 0.35613
ltoes -12.6257
174
root 2.44474 18.0659 -14.0101 0.578907 5.46913 -7.28088
lowerback 14.1909 -1.58934 -7.38944
upperback 3.20698 -3.2497 -1.76726
thorax -4.23667 -1.53157 2.86236
lowerneck -17.3743 0.636237 6.21911
upperneck 21.8294 -2.20593 5.25923
head 9.86828 0.110305 0.511525
rclavicle 3.18055e-015 2.54444e-014
rhumerus -22.2228 -27.8732 -0.227531
rradius 35.0154
rwrist -3.65451
rhand -19.3229 -2.53227
rfingers 7.12502
rthumb 6.99349 -32.3967
lclavicle 3.18055e-015 2.54444e-014
lhumerus -20.8326 28.0428 41.4318
lradius 35.7296
lwrist 7.13291
lhand -21.8577 -3.65952
lfingers 7.12502
lthumb 4.54617 26.2717
rfemur -17.9332 -7.75309 13.1788
rtibia 32.6116
rfoot -8.9459 -19.4154
rtoes -9.45333
lfemur -7.69805 6.04575 -12.2396
ltibia 30.9824
lfoot -15.4836 0.212151
ltoes -12.6497
175
root 2.43148 18.0595 -13.969 0.507896 5.54123 -7.02903
lowerback 14.2525 -1.64628 -7.51301
upperback 3.24386 -3.35278 -1.91115
thorax -4.22226 -1.58227 2.79821
lowerneck -17.3686 0.671036 6.31327
upperneck 21.7939 -2.22961 5.45109
head 9.85949 0.127903 0.560006
rclavicle -5.1684e-015 0
rhumerus -21.7976 -27.7197 -0.343524
rradius 35.2169
rwrist -3.65987
rhand -19.3886 -2.58014
rfingers 7.12502
rthumb 6.93 -32.4467
lclavicle -5.1684e-015 0
lhumerus -21.0585 28.1384 41.9525
lradius 35.7078
lwrist 6.96405
lhand -21.8191 -3.73501
lfingers 7.12502
lthumb 4.5834 26.1954
rfemur -18.2376 -7.64666 13.0512
rtibia 32.5958
rfoot -8.86893 -19.4597
rtoes -9.41933
lfemur -7.39237 6.16832 -12.4234
ltibia 30.8509
lfoot -15.5165 0.0944861
ltoes -12.7014
176
root 2.41574 18.053 -13.9276 0.441847 5.61442 -6.79077
lowerback 14.3078 -1.70377 -7.64321
upperback 3.28737 -3.4566 -2.05579
thorax -4.19701 -1.63384 2.73659
lowerneck -17.3614 0.708123 6.40585
upperneck 21.7466 -2.24829 5.64233
head 9.84631 0.146991 0.609083
rclavicle 9.14409e-015 5.24792e-014
rhumerus -21.3722 -27.5974 -0.418218
rradius 35.4165
rwrist -3.65858
rhand -19.4397 -2.62264
rfingers 7.12502
rthumb 6.88066 -32.4908
lclavicle 9.14409e-015 5.24792e-014
lhumerus -21.2885 28.2784 42.4144
lradius 35.6692
lwrist 6.83745
lhand -21.7634 -3.80137
lfingers 7.12502
lthumb 4.63723 26.1279
rfemur -18.554 -7.56174 12.9562
rtibia 32.5983
rfoot -8.793 -19.4782
rtoes -9.39686
lfemur -7.0914 6.27113 -12.5858
ltibia 30.7161
lfoot -15.548 0.00280691
ltoes -12.7853
177
root 2.39779 18.0465 -13.8857 0.38202 5.69223 -6.57139
lowerback 14.3579 -1.76108 -7.77181
upperback 3.3336 -3.55901 -2.19598
thorax -4.16598 -1.68503 2.67815
lowerneck -17.345 0.743069 6.49207
upperneck 21.6845 -2.26419 5.82714
head 9.82602 0.165151 0.657095
rclavicle -3.18055e-015 2.22639e-014
rhumerus -20.9547 -27.5139 -0.439489
rradius 35.6137
rwrist -3.65569
rhand -19.4793 -2.65836
rfingers 7.12502
rthumb 6.84244 -32.5278
lclavicle -3.18055e-015 2.22639e-014
lhumerus -21.5192 28.4559 42.8251
lradius 35.6137
lwrist 6.75895
lhand -21.6925 -3.86074
lfingers 7.12502
lthumb 4.70574 26.067
rfemur -18.88 -7.49978 12.8975
rtibia 32.6077
rfoot -8.71937 -19.471
rtoes -9.38849
lfemur -6.80105 6.35192 -12.7222
ltibia 30.5834
lfoot -15.5782 -0.0641095
ltoes -12.9024
178
root 2.37797 18.0401 -13.8434 0.329163 5.7765 -6.37506
lowerback 14.405 -1.81732 -7.88933
upperback 3.37886 -3.65775 -2.32807
thorax -4.13492 -1.73451 2.62131
lowerneck -17.3272 0.772823 6.56973
upperneck 21.6167 -2.28091 5.99965
head 9.80315 0.18039 0.701967
rclavicle -9.54166e-015 -3.18055e-015
rhumerus -20.5523 -27.4724 -0.398606
rradius 35.8052
rwrist -3.65123
rhand -19.5162 -2.68109
rfingers 7.12502
rthumb 6.80691 -32.5517
lclavicle -9.54166e-015 -3.18055e-015
lhumerus -21.747 28.6634 43.1921
lradius 35.5414
lwrist 6.72461
lhand -21.6161 -3.91074
lfingers 7.12502
lthumb 4.77943 26.0154
rfemur -19.2124 -7.4625 12.8771
rtibia 32.6137
rfoot -8.6505 -19.4371
rtoes -9.39717
lfemur -6.52483 6.40893 -12.8299
ltibia 30.4566
lfoot -15.6086 -0.106094
ltoes -13.048
179
root 2.35667 18.0339 -13.8004 0.28374 5.86842 -6.20216
lowerback 14.4521 -1.87167 -7.98926
upperback 3.4196 -3.75127 -2.45033
thorax -4.10971 -1.78125 2.5643
lowerneck -17.3102 0.795256 6.63518
upperneck 21.5487 -2.3006 6.15801
head 9.78003 0.191502 0.743415
rclavicle -1.90833e-014 1.27222e-014
rhumerus -20.1721 -27.4668 -0.290622
rradius 35.9903
rwrist -3.64973
rhand -19.5584 -2.68923
rfingers 7.12502
rthumb 6.7661 -32.5611
lclavicle -1.90833e-014 1.27222e-014
lhumerus -21.9715 28.8899 43.522
lradius 35.4554
lwrist 6.72381
lhand -21.5477 -3.94629
lfingers 7.12502
lthumb 4.84552 25.9783
rfemur -19.5481 -7.45145 12.8921
rtibia 32.6072
rfoot -8.58619 -19.3758
rtoes -9.43058
lfemur -6.26379 6.4394 -12.9108
ltibia 30.3376
lfoot -15.6409 -0.122005
ltoes -13.2137
180
root 2.33428 18.028 -13.7567 0.245513 5.96814 -6.05087
lowerback 14.5015 -1.92368 -8.06724
upperback 3.45381 -3.83876 -2.56267
thorax -4.09418 -1.82467 2.50489
lowerneck -17.3011 0.810646 6.68966
upperneck 21.4856 -2.32341 6.29812
head 9.7597 0.19846 0.779885
rclavicle -4.77083e-015 4.45278e-014
rhumerus -19.8179 -27.486 -0.116224
rradius 36.167
rwrist -3.65293
rhand -19.6162 -2.69155
rfingers 7.12502
rthumb 6.7103 -32.5652
lclavicle -4.77083e-015 4.45278e-014
lhumerus -22.1937 29.1239 43.8186
lradius 35.3609
lwrist 6.74222
lhand -21.499 -3.96507
lfingers 7.12502
lthumb 4.89256 25.9584
rfemur -19.8835 -7.46613 12.9368
rtibia 32.5811
rfoot -8.52429 -19.2883
rtoes -9.49875
lfemur -6.01601 6.43892 -12.9689
ltibia 30.2254
lfoot -15.677 -0.109579
ltoes -13.3895
181
root 2.31112 18.0224 -13.7122 0.213926 6.0758 -5.91793
lowerback 14.5536 -1.97327 -8.12143
upperback 3.48148 -3.91992 -2.6657
thorax -4.08883 -1.86461 2.44143
lowerneck -17.3016 0.819838 6.73236
upperneck 21.4268 -2.34794 6.41921
head 9.74223 0.201807 0.811446
rclavicle 1.59028e-015 1.27222e-014
rhumerus -19.4915 -27.5262 0.122295
rradius 36.3294
rwrist -3.65453
rhand -19.6922 -2.68694
rfingers 7.12502
rthumb 6.63694 -32.5629
lclavicle 1.59028e-015 1.27222e-014
lhumerus -22.4145 29.3526 44.0851
lradius 35.2645
lwrist 6.76574
lhand -21.4769 -3.96508
lfingers 7.12502
lthumb 4.91385 25.9579
rfemur -20.2154 -7.50477 13.0041
rtibia 32.5298
rfoot -8.46165 -19.177
rtoes -9.60269
lfemur -5.7777 6.40127 -13.0099
ltibia 30.1166
lfoot -15.7176 -0.0660839
ltoes -13.5656
182
root 2.28739 18.0172 -13.6668 0.188741 6.19074 -5.80073
lowerback 14.6074 -2.02016 -8.15192
upperback 3.50333 -3.99429 -2.75963
thorax -4.09243 -1.9009 2.37365
lowerneck -17.3103 0.824179 6.76292
upperneck 21.372 -2.37235 6.52233
head 9.72722 0.202471 0.838771
rclavicle 1.23246e-014 6.36111e-015
rhumerus -19.1924 -27.5879 0.420024
rradius 36.471
rwrist -3.64509
rhand -19.7857 -2.67731
rfingers 7.12502
rthumb 6.54672 -32.5561
lclavicle 1.23246e-014 6.36111e-015
lhumerus -22.6348 29.5662 44.3233
lradius 35.1724
lwrist 6.77907
lhand -21.4819 -3.95057
lfingers 7.12502
lthumb 4.90901 25.9726
rfemur -20.5421 -7.56125 13.0878
rtibia 32.4497
rfoot -8.3939 -19.0489
rtoes -9.73498
lfemur -5.54501 6.32043 -13.0381
ltibia 30.006
lfoot -15.7615 0.0110703
ltoes -13.7335
183
root 2.26319 18.0123 -13.6205 0.170144 6.31364 -5.69563
lowerback 14.6599 -2.06449 -8.16104
upperback 3.52182 -4.06186 -2.84462
thorax -4.1006 -1.93377 2.30246
lowerneck -17.3275 0.824299 6.78467
upperneck 21.3173 -2.39597 6.60547
head 9.71331 0.200664 0.860665
rclavicle -3.4191e-014 3.18055e-015
rhumerus -18.9187 -27.6786 0.770629
rradius 36.5846
rwrist -3.61853
rhand -19.8932 -2.66628
rfingers 7.12502
rthumb 6.44294 -32.5483
lclavicle -3.4191e-014 3.18055e-015
lhumerus -22.8516 29.7587 44.536
lradius 35.0889
lwrist 6.77207
lhand -21.5085 -3.92697
lfingers 7.12502
lthumb 4.88333 25.9968
rfemur -20.8626 -7.63062 13.181
rtibia 32.3384
rfoot -8.31722 -18.9116
rtoes -9.88264
lfemur -5.31475 6.19083 -13.0587
ltibia 29.8879
lfoot -15.8063 0.123883
ltoes -13.892
184
root 2.23856 18.0078 -13.5733 0.159232 6.44482 -5.59926
lowerback 14.7078 -2.10642 -8.15254
upperback 3.53908 -4.12282 -2.92003
thorax -4.10891 -1.96351 2.2304
lowerneck -17.3566 0.820826 6.80111
upperneck 21.2649 -2.41911 6.66704
head 9.7019 0.196529 0.876021
rclavicle 3.97569e-014 3.49861e-014
rhumerus -18.6677 -27.8055 1.16621
rradius 36.6664
rwrist -3.57491
rhand -20.0092 -2.65356
rfingers 7.12502
rthumb 6.3309 -32.539
lclavicle 3.97569e-014 3.49861e-014
lhumerus -23.0612 29.926 44.7263
lradius 35.0167
lwrist 6.74379
lhand -21.548 -3.89936
lfingers 7.12502
lthumb 4.84518 26.0252
rfemur -21.1773 -7.70741 13.2778
rtibia 32.1942
rfoot -8.22885 -18.7737
rtoes -10.0271
lfemur -5.08534 6.00988 -13.0761
ltibia 29.7572
lfoot -15.8494 0.273749
ltoes -14.0454
